<?xml version="1.0" standalone="no"?>
<!DOCTYPE svg PUBLIC "-//W3C//DTD SVG 20010904//EN"
 "http://www.w3.org/TR/2001/REC-SVG-20010904/DTD/svg10.dtd">
<svg version="1.0" xmlns="http://www.w3.org/2000/svg"
 viewBox="0 0 2600.000000 2600.000000"
 preserveAspectRatio="xMidYMid meet">
<rect width="100%" height="100%" fill="#0165C2" opacity="0.9" />
<metadata>
Created by potrace 1.15, written by Peter Selinger 2001-2017
</metadata>
<g transform="translate(0.000000,2600.000000) scale(0.100000,-0.100000)"
fill="#ffffff" stroke="none">
<path d="M12725 23573 c-112 -14 -270 -51 -390 -90 -656 -218 -1145 -766
-1291 -1447 -71 -336 -50 -678 62 -1016 227 -682 806 -1177 1522 -1300 666
-115 1371 142 1803 659 306 365 460 787 460 1261 0 516 -188 981 -545 1349
-312 320 -686 511 -1127 575 -98 15 -408 20 -494 9z"/>
<path d="M12625 19126 c-293 -49 -516 -166 -718 -375 -179 -185 -291 -410
-332 -664 -22 -139 -22 -5535 0 -5674 43 -266 158 -489 354 -684 195 -196 408
-306 685 -354 78 -13 351 -15 2275 -15 l2186 0 802 -1433 c442 -787 824 -1463
849 -1501 100 -149 275 -304 444 -394 287 -154 644 -185 964 -85 377 117 685
424 810 807 43 132 59 239 59 391 -1 182 -28 315 -100 490 -30 71 -1973 3544
-2050 3663 -182 282 -506 492 -845 547 -80 13 -355 15 -2020 15 l-1928 0 0
1301 c0 1037 3 1300 13 1296 6 -2 694 -252 1527 -555 1111 -404 1539 -555
1605 -567 120 -23 336 -16 445 14 183 50 322 127 457 255 153 144 244 301 300
515 21 81 25 119 25 241 1 162 -20 264 -83 415 -95 228 -314 447 -544 543 -38
16 -997 366 -2130 777 -1910 694 -2065 752 -2125 795 -149 108 -317 185 -482
221 -120 26 -333 33 -443 15z"/>
<path d="M9665 17870 c-174 -27 -251 -73 -560 -331 -691 -577 -1266 -1302
-1668 -2105 -556 -1111 -792 -2409 -661 -3634 104 -974 408 -1884 907 -2715
383 -639 857 -1192 1432 -1674 1432 -1199 3321 -1731 5185 -1460 841 122 1699
429 2431 869 301 181 575 376 667 474 182 195 214 500 75 735 -78 131 -202
230 -347 278 -68 22 -99 26 -191 26 -183 0 -252 -30 -524 -226 -446 -321
-1027 -600 -1588 -762 -494 -143 -942 -206 -1478 -206 -270 0 -440 10 -685 41
-1099 137 -2155 631 -2955 1383 -503 472 -882 985 -1176 1591 -326 674 -498
1360 -528 2108 -42 1069 227 2106 782 3013 338 553 770 1030 1326 1464 166
130 247 277 258 472 12 203 -62 378 -216 513 -128 111 -328 172 -486 146z"/>
</g>
</svg>
