<?xml version="1.0" standalone="no"?>
<!DOCTYPE svg PUBLIC "-//W3C//DTD SVG 20010904//EN"
 "http://www.w3.org/TR/2001/REC-SVG-20010904/DTD/svg10.dtd">
<svg version="1.0" xmlns="http://www.w3.org/2000/svg"
 viewBox="0 0 2600.000000 2600.000000"
 preserveAspectRatio="xMidYMid meet">
 <rect width="100%" height="100%" fill="#0165C2" opacity="0.9" />
<metadata>
Created by potrace 1.15, written by Peter Selinger 2001-2017
</metadata>
<g transform="translate(0.000000,2600.000000) scale(0.100000,-0.100000)"
fill="#ffffff" stroke="#000000" stroke-width="2">
<path d="M9495 21845 c-580 -94 -1056 -428 -1328 -935 -206 -384 -264 -859
-157 -1282 154 -600 591 -1071 1175 -1266 212 -71 317 -87 570 -86 200 0 232
2 346 27 179 38 293 77 454 157 175 87 297 174 443 315 341 328 530 749 549
1220 15 383 -89 751 -305 1075 -108 162 -322 377 -482 483 -205 136 -432 230
-666 278 -142 28 -462 36 -599 14z"/>
<path d="M10066 17739 c-753 -62 -1432 -536 -1759 -1228 -150 -318 -227 -723
-199 -1052 9 -103 459 -3988 607 -5244 32 -264 56 -386 110 -550 237 -723 854
-1273 1600 -1428 66 -14 149 -28 185 -31 36 -4 94 -11 130 -16 36 -6 746 -14
1594 -20 1298 -9 1539 -13 1594 -25 99 -23 197 -80 277 -160 l71 -70 321 -635
c177 -349 634 -1254 1017 -2010 l695 -1375 505 -3 506 -2 2 5832 3 5833 24 60
c46 114 104 188 195 247 200 129 477 93 630 -83 52 -59 103 -170 116 -249 6
-38 10 -264 10 -542 l0 -478 266 0 265 0 -3 563 -4 562 -27 90 c-111 367 -375
626 -736 723 -84 22 -116 25 -251 25 -136 0 -167 -3 -255 -26 -291 -78 -529
-274 -660 -542 -96 -196 -98 -211 -103 -652 l-3 -382 -62 -5 c-34 -3 -806 -29
-1716 -57 -1298 -40 -1666 -49 -1710 -40 -31 6 -84 25 -118 41 -116 57 -132
81 -533 806 -201 362 -381 699 -401 749 -76 191 -147 318 -276 500 -40 55 -87
121 -105 147 -18 26 -55 64 -83 85 -27 21 -93 75 -147 121 -351 301 -789 485
-1242 522 -143 11 -185 11 -330 -1z m6724 -7866 c0 -2352 -2 -4274 -4 -4272
-2 2 -277 964 -610 2138 -440 1549 -615 2150 -638 2195 -44 84 -164 202 -248
243 -133 65 -94 62 -1200 93 -558 16 -1031 29 -1051 30 l-37 0 -4 148 c-4 98
-56 577 -157 1438 -83 711 -151 1303 -151 1316 0 24 20 29 2028 485 1115 254
2037 461 2050 462 l22 1 0 -4277z"/>
<path d="M7444 7569 c-315 -53 -574 -275 -676 -579 -31 -91 -32 -101 -32 -260
-1 -161 0 -167 32 -260 95 -275 297 -469 577 -557 l90 -28 2710 -3 c2961 -3
2782 -6 2942 54 210 78 401 262 486 468 38 93 67 232 67 326 0 95 -29 236 -68
327 -86 205 -276 389 -483 467 -159 59 18 56 -2913 55 -1474 -1 -2704 -5
-2732 -10z"/>
</g>
</svg>
