<?xml version="1.0" standalone="no"?>
<!DOCTYPE svg PUBLIC "-//W3C//DTD SVG 20010904//EN"
 "http://www.w3.org/TR/2001/REC-SVG-20010904/DTD/svg10.dtd">
<svg version="1.0" xmlns="http://www.w3.org/2000/svg"
 viewBox="0 0 2600.000000 2600.000000"
 preserveAspectRatio="xMidYMid meet">
<rect width="100%" height="100%" fill="#297355" opacity="0.9" />
<metadata>
Created by potrace 1.15, written by Peter Selinger 2001-2017
</metadata>
<g transform="translate(0.000000,2600.000000) scale(0.100000,-0.100000)"
fill="#ffffff" stroke="none">
<path d="M19960 20125 l0 -585 -242 -2 -243 -3 -3 -1302 -2 -1303 515 0 515 0
-2 -2067 -3 -2068 -23 -99 c-164 -721 -714 -1226 -1432 -1315 -48 -6 -284 -11
-547 -11 l-463 0 0 1193 c0 751 -4 1225 -10 1282 -40 342 -205 631 -478 833
-102 75 -196 124 -325 167 -159 53 -261 65 -569 65 l-267 0 -4 1488 -3 1487
-26 105 c-84 338 -214 578 -436 804 -240 243 -511 392 -856 469 l-101 22
-3940 0 c-3776 0 -3944 -1 -4030 -18 -319 -65 -608 -214 -832 -431 -253 -243
-392 -488 -481 -846 l-26 -105 -3 -1487 -4 -1488 -267 0 c-308 0 -410 -12
-569 -65 -128 -43 -223 -92 -323 -166 -233 -173 -396 -424 -461 -714 l-23
-100 -4 -1570 c-2 -1016 0 -1614 7 -1695 25 -298 127 -532 323 -736 90 -94
166 -155 269 -215 l68 -39 4 -738 c3 -700 5 -741 24 -827 58 -253 169 -454
344 -621 100 -95 186 -154 312 -214 208 -100 382 -125 796 -117 291 5 368 15
519 69 179 63 312 147 447 282 152 152 254 330 313 543 l27 98 3 703 3 702
3559 0 3560 0 0 -662 c0 -716 2 -750 55 -912 113 -347 379 -624 714 -747 184
-67 238 -73 621 -73 322 0 352 1 450 22 251 55 446 165 624 353 181 192 283
412 316 679 6 50 10 361 10 770 l0 686 95 60 c273 171 454 414 535 719 11 44
26 142 32 217 l11 136 531 5 c489 3 541 5 651 25 397 71 736 221 1045 461 106
82 287 261 370 366 272 343 443 758 489 1187 7 65 11 771 11 2123 l0 2025 475
0 475 0 0 1305 0 1305 -245 0 -245 0 0 585 0 585 -175 0 -175 0 0 -585 0 -585
-465 0 -465 0 0 585 0 585 -175 0 -175 0 0 -585z m-5142 -2095 c102 -24 206
-99 256 -184 58 -100 56 -36 56 -1548 l0 -1388 -4120 0 -4120 0 0 1388 c0
1512 -2 1448 56 1548 49 83 143 152 244 180 58 16 7559 19 7628 4z m-8225
-4636 c489 -92 873 -521 915 -1021 20 -237 -21 -442 -131 -645 -323 -601
-1086 -790 -1651 -409 -437 295 -617 858 -432 1352 173 463 633 767 1121 742
55 -2 135 -11 178 -19z m9175 16 c267 -28 502 -140 693 -330 347 -345 437
-864 225 -1305 -386 -802 -1486 -881 -1987 -143 -61 89 -126 234 -157 345 -24
90 -26 113 -26 293 0 181 2 202 27 295 122 451 524 796 983 844 112 12 137 12
242 1z m-2623 -585 c39 -8 111 -35 160 -59 159 -79 274 -207 337 -378 25 -68
31 -103 35 -193 6 -139 -12 -228 -69 -344 -34 -69 -59 -103 -128 -171 -98 -98
-185 -149 -306 -180 -76 -20 -115 -20 -2164 -20 -2049 0 -2088 0 -2164 20
-404 103 -622 570 -442 945 72 151 170 251 321 326 146 72 -14 67 2280 68
1778 1 2080 -1 2140 -14z"/>
<path d="M4031 16524 c-36 -7 -108 -35 -160 -61 -166 -82 -297 -235 -358 -418
-24 -71 -27 -95 -27 -215 0 -118 3 -145 26 -212 92 -277 323 -465 610 -498
106 -13 489 -13 594 -1 386 45 663 369 641 751 -10 184 -77 330 -212 465 -65
66 -98 90 -175 128 -145 72 -183 77 -555 76 -235 0 -337 -4 -384 -15z"/>
<path d="M17250 16533 c-14 -2 -54 -13 -89 -24 -222 -70 -394 -240 -468 -464
-24 -71 -27 -96 -27 -215 0 -118 3 -145 26 -212 80 -240 254 -407 499 -479 65
-19 107 -22 339 -26 296 -6 405 3 526 41 170 54 329 194 409 361 59 122 79
220 72 349 -10 189 -77 338 -212 473 -67 66 -100 90 -177 127 -145 71 -182 76
-553 74 -176 0 -331 -3 -345 -5z"/>
</g>
</svg>
