<?xml version="1.0" standalone="no"?>
<!DOCTYPE svg PUBLIC "-//W3C//DTD SVG 20010904//EN"
 "http://www.w3.org/TR/2001/REC-SVG-20010904/DTD/svg10.dtd">
<svg version="1.0" xmlns="http://www.w3.org/2000/svg"
 viewBox="0 0 2600.000000 2600.000000"
 preserveAspectRatio="xMidYMid meet">
<rect width="100%" height="100%" fill="#D8538E" opacity="0.9" />
<metadata>
Created by potrace 1.15, written by Peter Selinger 2001-2017
</metadata>
<g transform="translate(0.000000,2600.000000) scale(0.100000,-0.100000)"
fill="#ffffff" stroke="none">
<path d="M12760 24249 c-454 -47 -873 -241 -1202 -558 -192 -185 -311 -346
-424 -576 -276 -561 -276 -1229 0 -1790 113 -230 232 -391 424 -576 302 -292
687 -482 1097 -544 491 -73 1011 41 1425 312 783 514 1113 1484 808 2373 -304
883 -1197 1454 -2128 1359z"/>
<path d="M12795 19599 c-1361 -6 -1557 -10 -1703 -40 -187 -38 -397 -153 -481
-263 -33 -44 -61 -109 -70 -164 -4 -26 -538 -1579 -1186 -3452 l-1178 -3405
-5 -102 c-4 -91 -2 -112 21 -186 123 -393 614 -517 907 -228 46 45 78 89 102
136 19 39 358 877 754 1863 l719 1794 7 -69 c4 -37 21 -444 38 -903 l31 -835
-599 -2975 c-329 -1636 -597 -2978 -595 -2982 2 -5 314 -8 693 -8 l688 0 6
-122 c6 -131 37 -1482 86 -3748 16 -767 34 -1451 39 -1520 17 -212 67 -326
201 -461 97 -98 180 -145 321 -180 69 -18 104 -21 213 -17 114 4 142 8 219 35
122 43 189 85 284 179 68 68 89 97 126 175 25 52 52 123 61 159 12 48 57 766
171 2750 86 1477 158 2700 161 2718 l5 32 184 0 184 0 5 -42 c3 -24 69 -1206
146 -2628 77 -1422 144 -2635 150 -2696 18 -195 79 -335 201 -462 295 -305
839 -287 1094 36 93 117 141 256 150 441 6 104 145 5200 145 5300 l0 51 670 0
c636 0 670 1 670 18 0 10 -266 1340 -590 2957 l-590 2940 20 850 c11 468 24
890 28 940 l7 90 724 -1805 c398 -993 737 -1832 754 -1864 56 -114 184 -224
310 -265 162 -54 343 -29 484 67 172 117 269 337 234 533 -11 65 -2354 6858
-2393 6939 -13 26 -65 88 -123 146 -89 89 -112 106 -205 152 -149 74 -256 98
-481 111 -286 16 -339 16 -1814 10z"/>
</g>
</svg>
